<svg width="19" height="19" viewBox="0 0 19 19" fill="none" xmlns="http://www.w3.org/2000/svg">
<circle cx="9.40191" cy="9.40191" r="8.90191" stroke="#12274A"/>
<path d="M8.44141 10.4362C8.59282 10.6386 8.78599 10.8061 9.00783 10.9273C9.22967 11.0485 9.47497 11.1206 9.72711 11.1387C9.97925 11.1567 10.2323 11.1203 10.4692 11.032C10.706 10.9436 10.9211 10.8054 11.0998 10.6266L12.1575 9.56888C12.4786 9.2364 12.6563 8.7911 12.6523 8.32889C12.6483 7.86667 12.4629 7.42452 12.136 7.09767C11.8092 6.77083 11.367 6.58543 10.9048 6.58141C10.4426 6.57739 9.99731 6.75508 9.66483 7.0762L9.05841 7.6791" stroke="#12274A" stroke-linecap="round" stroke-linejoin="round"/>
<path d="M9.85159 9.73107C9.70017 9.52865 9.507 9.36116 9.28516 9.23996C9.06333 9.11876 8.81802 9.04669 8.56588 9.02863C8.31374 9.01057 8.06067 9.04695 7.82382 9.1353C7.58698 9.22365 7.37191 9.3619 7.1932 9.54068L6.13548 10.5984C5.81436 10.9309 5.63668 11.3762 5.64069 11.8384C5.64471 12.3006 5.83011 12.7428 6.15695 13.0696C6.4838 13.3965 6.92595 13.5819 7.38817 13.5859C7.85038 13.5899 8.29568 13.4122 8.62816 13.0911L9.23106 12.4882" stroke="#12274A" stroke-linecap="round" stroke-linejoin="round"/>
</svg>
