<svg width="19" height="19" viewBox="0 0 19 19" fill="none" xmlns="http://www.w3.org/2000/svg">
<circle cx="9.40191" cy="9.40191" r="8.90191" stroke="#12274A"/>
<path d="M10.9696 7.83493C11.593 7.83493 12.1909 8.08257 12.6317 8.52337C13.0725 8.96417 13.3201 9.56202 13.3201 10.1854V12.9276H11.7531V10.1854C11.7531 9.97761 11.6706 9.77833 11.5236 9.6314C11.3767 9.48446 11.1774 9.40192 10.9696 9.40192C10.7618 9.40192 10.5625 9.48446 10.4156 9.6314C10.2687 9.77833 10.1861 9.97761 10.1861 10.1854V12.9276H8.61914V10.1854C8.61914 9.56202 8.86678 8.96417 9.30758 8.52337C9.74838 8.08257 10.3462 7.83493 10.9696 7.83493Z" fill="#12274A"/>
<path d="M7.05136 8.22667H5.48438V12.9276H7.05136V8.22667Z" fill="#12274A"/>
<path d="M6.26787 7.05144C6.70058 7.05144 7.05136 6.70066 7.05136 6.26794C7.05136 5.83523 6.70058 5.48445 6.26787 5.48445C5.83516 5.48445 5.48438 5.83523 5.48438 6.26794C5.48438 6.70066 5.83516 7.05144 6.26787 7.05144Z" fill="#12274A"/>
</svg>
